<?xml version='1.0' encoding='UTF-8'?>
<svg width="65mm" height="65mm" version="1.1" viewBox="0 0 65 65" xmlns="http://www.w3.org/2000/svg"><path d="M2,2H3V3H2zM3,2H4V3H3zM4,2H5V3H4zM5,2H6V3H5zM6,2H7V3H6zM7,2H8V3H7zM8,2H9V3H8zM13,2H14V3H13zM14,2H15V3H14zM15,2H16V3H15zM16,2H17V3H16zM18,2H19V3H18zM20,2H21V3H20zM22,2H23V3H22zM24,2H25V3H24zM25,2H26V3H25zM26,2H27V3H26zM30,2H31V3H30zM31,2H32V3H31zM33,2H34V3H33zM37,2H38V3H37zM38,2H39V3H38zM41,2H42V3H41zM44,2H45V3H44zM45,2H46V3H45zM47,2H48V3H47zM49,2H50V3H49zM53,2H54V3H53zM54,2H55V3H54zM56,2H57V3H56zM57,2H58V3H57zM58,2H59V3H58zM59,2H60V3H59zM60,2H61V3H60zM61,2H62V3H61zM62,2H63V3H62zM2,3H3V4H2zM8,3H9V4H8zM11,3H12V4H11zM12,3H13V4H12zM13,3H14V4H13zM17,3H18V4H17zM18,3H19V4H18zM20,3H21V4H20zM24,3H25V4H24zM25,3H26V4H25zM27,3H28V4H27zM28,3H29V4H28zM29,3H30V4H29zM30,3H31V4H30zM31,3H32V4H31zM32,3H33V4H32zM35,3H36V4H35zM36,3H37V4H36zM38,3H39V4H38zM39,3H40V4H39zM40,3H41V4H40zM41,3H42V4H41zM43,3H44V4H43zM45,3H46V4H45zM47,3H48V4H47zM48,3H49V4H48zM50,3H51V4H50zM51,3H52V4H51zM53,3H54V4H53zM54,3H55V4H54zM56,3H57V4H56zM62,3H63V4H62zM2,4H3V5H2zM4,4H5V5H4zM5,4H6V5H5zM6,4H7V5H6zM8,4H9V5H8zM10,4H11V5H10zM12,4H13V5H12zM13,4H14V5H13zM14,4H15V5H14zM16,4H17V5H16zM19,4H20V5H19zM20,4H21V5H20zM21,4H22V5H21zM22,4H23V5H22zM23,4H24V5H23zM24,4H25V5H24zM25,4H26V5H25zM26,4H27V5H26zM30,4H31V5H30zM31,4H32V5H31zM32,4H33V5H32zM33,4H34V5H33zM36,4H37V5H36zM39,4H40V5H39zM40,4H41V5H40zM42,4H43V5H42zM43,4H44V5H43zM46,4H47V5H46zM48,4H49V5H48zM52,4H53V5H52zM53,4H54V5H53zM54,4H55V5H54zM56,4H57V5H56zM58,4H59V5H58zM59,4H60V5H59zM60,4H61V5H60zM62,4H63V5H62zM2,5H3V6H2zM4,5H5V6H4zM5,5H6V6H5zM6,5H7V6H6zM8,5H9V6H8zM10,5H11V6H10zM11,5H12V6H11zM13,5H14V6H13zM14,5H15V6H14zM18,5H19V6H18zM20,5H21V6H20zM22,5H23V6H22zM27,5H28V6H27zM30,5H31V6H30zM32,5H33V6H32zM35,5H36V6H35zM36,5H37V6H36zM37,5H38V6H37zM38,5H39V6H38zM40,5H41V6H40zM45,5H46V6H45zM47,5H48V6H47zM48,5H49V6H48zM49,5H50V6H49zM50,5H51V6H50zM52,5H53V6H52zM54,5H55V6H54zM56,5H57V6H56zM58,5H59V6H58zM59,5H60V6H59zM60,5H61V6H60zM62,5H63V6H62zM2,6H3V7H2zM4,6H5V7H4zM5,6H6V7H5zM6,6H7V7H6zM8,6H9V7H8zM10,6H11V7H10zM11,6H12V7H11zM12,6H13V7H12zM13,6H14V7H13zM14,6H15V7H14zM15,6H16V7H15zM16,6H17V7H16zM17,6H18V7H17zM18,6H19V7H18zM19,6H20V7H19zM20,6H21V7H20zM21,6H22V7H21zM24,6H25V7H24zM28,6H29V7H28zM29,6H30V7H29zM30,6H31V7H30zM31,6H32V7H31zM32,6H33V7H32zM33,6H34V7H33zM34,6H35V7H34zM36,6H37V7H36zM39,6H40V7H39zM40,6H41V7H40zM41,6H42V7H41zM43,6H44V7H43zM45,6H46V7H45zM48,6H49V7H48zM50,6H51V7H50zM51,6H52V7H51zM52,6H53V7H52zM53,6H54V7H53zM56,6H57V7H56zM58,6H59V7H58zM59,6H60V7H59zM60,6H61V7H60zM62,6H63V7H62zM2,7H3V8H2zM8,7H9V8H8zM10,7H11V8H10zM12,7H13V8H12zM14,7H15V8H14zM15,7H16V8H15zM19,7H20V8H19zM20,7H21V8H20zM23,7H24V8H23zM26,7H27V8H26zM27,7H28V8H27zM29,7H30V8H29zM30,7H31V8H30zM34,7H35V8H34zM35,7H36V8H35zM37,7H38V8H37zM41,7H42V8H41zM44,7H45V8H44zM45,7H46V8H45zM46,7H47V8H46zM47,7H48V8H47zM49,7H50V8H49zM52,7H53V8H52zM56,7H57V8H56zM62,7H63V8H62zM2,8H3V9H2zM3,8H4V9H3zM4,8H5V9H4zM5,8H6V9H5zM6,8H7V9H6zM7,8H8V9H7zM8,8H9V9H8zM10,8H11V9H10zM12,8H13V9H12zM14,8H15V9H14zM16,8H17V9H16zM18,8H19V9H18zM20,8H21V9H20zM22,8H23V9H22zM24,8H25V9H24zM26,8H27V9H26zM28,8H29V9H28zM30,8H31V9H30zM32,8H33V9H32zM34,8H35V9H34zM36,8H37V9H36zM38,8H39V9H38zM40,8H41V9H40zM42,8H43V9H42zM44,8H45V9H44zM46,8H47V9H46zM48,8H49V9H48zM50,8H51V9H50zM52,8H53V9H52zM54,8H55V9H54zM56,8H57V9H56zM57,8H58V9H57zM58,8H59V9H58zM59,8H60V9H59zM60,8H61V9H60zM61,8H62V9H61zM62,8H63V9H62zM10,9H11V10H10zM16,9H17V10H16zM17,9H18V10H17zM18,9H19V10H18zM19,9H20V10H19zM20,9H21V10H20zM22,9H23V10H22zM23,9H24V10H23zM24,9H25V10H24zM26,9H27V10H26zM27,9H28V10H27zM30,9H31V10H30zM34,9H35V10H34zM35,9H36V10H35zM39,9H40V10H39zM40,9H41V10H40zM42,9H43V10H42zM43,9H44V10H43zM46,9H47V10H46zM48,9H49V10H48zM53,9H54V10H53zM2,10H3V11H2zM4,10H5V11H4zM5,10H6V11H5zM6,10H7V11H6zM7,10H8V11H7zM8,10H9V11H8zM12,10H13V11H12zM13,10H14V11H13zM14,10H15V11H14zM17,10H18V11H17zM21,10H22V11H21zM22,10H23V11H22zM29,10H30V11H29zM30,10H31V11H30zM31,10H32V11H31zM32,10H33V11H32zM33,10H34V11H33zM34,10H35V11H34zM35,10H36V11H35zM36,10H37V11H36zM37,10H38V11H37zM38,10H39V11H38zM40,10H41V11H40zM43,10H44V11H43zM44,10H45V11H44zM47,10H48V11H47zM48,10H49V11H48zM50,10H51V11H50zM52,10H53V11H52zM53,10H54V11H53zM54,10H55V11H54zM56,10H57V11H56zM57,10H58V11H57zM58,10H59V11H58zM59,10H60V11H59zM60,10H61V11H60zM3,11H4V12H3zM5,11H6V12H5zM6,11H7V12H6zM9,11H10V12H9zM12,11H13V12H12zM15,11H16V12H15zM18,11H19V12H18zM20,11H21V12H20zM22,11H23V12H22zM24,11H25V12H24zM25,11H26V12H25zM27,11H28V12H27zM28,11H29V12H28zM32,11H33V12H32zM37,11H38V12H37zM39,11H40V12H39zM43,11H44V12H43zM44,11H45V12H44zM45,11H46V12H45zM50,11H51V12H50zM51,11H52V12H51zM56,11H57V12H56zM57,11H58V12H57zM58,11H59V12H58zM60,11H61V12H60zM3,12H4V13H3zM4,12H5V13H4zM5,12H6V13H5zM6,12H7V13H6zM8,12H9V13H8zM12,12H13V13H12zM14,12H15V13H14zM15,12H16V13H15zM20,12H21V13H20zM21,12H22V13H21zM23,12H24V13H23zM24,12H25V13H24zM25,12H26V13H25zM26,12H27V13H26zM27,12H28V13H27zM29,12H30V13H29zM30,12H31V13H30zM33,12H34V13H33zM35,12H36V13H35zM36,12H37V13H36zM38,12H39V13H38zM40,12H41V13H40zM46,12H47V13H46zM47,12H48V13H47zM48,12H49V13H48zM50,12H51V13H50zM52,12H53V13H52zM59,12H60V13H59zM60,12H61V13H60zM62,12H63V13H62zM4,13H5V14H4zM5,13H6V14H5zM7,13H8V14H7zM9,13H10V14H9zM10,13H11V14H10zM11,13H12V14H11zM13,13H14V14H13zM14,13H15V14H14zM16,13H17V14H16zM17,13H18V14H17zM19,13H20V14H19zM23,13H24V14H23zM24,13H25V14H24zM26,13H27V14H26zM27,13H28V14H27zM32,13H33V14H32zM33,13H34V14H33zM35,13H36V14H35zM36,13H37V14H36zM41,13H42V14H41zM42,13H43V14H42zM43,13H44V14H43zM44,13H45V14H44zM46,13H47V14H46zM48,13H49V14H48zM53,13H54V14H53zM58,13H59V14H58zM59,13H60V14H59zM2,14H3V15H2zM7,14H8V15H7zM8,14H9V15H8zM11,14H12V15H11zM14,14H15V15H14zM16,14H17V15H16zM18,14H19V15H18zM20,14H21V15H20zM22,14H23V15H22zM23,14H24V15H23zM26,14H27V15H26zM27,14H28V15H27zM31,14H32V15H31zM35,14H36V15H35zM37,14H38V15H37zM38,14H39V15H38zM40,14H41V15H40zM41,14H42V15H41zM43,14H44V15H43zM44,14H45V15H44zM45,14H46V15H45zM49,14H50V15H49zM50,14H51V15H50zM53,14H54V15H53zM54,14H55V15H54zM55,14H56V15H55zM56,14H57V15H56zM57,14H58V15H57zM59,14H60V15H59zM60,14H61V15H60zM61,14H62V15H61zM62,14H63V15H62zM3,15H4V16H3zM5,15H6V16H5zM7,15H8V16H7zM12,15H13V16H12zM15,15H16V16H15zM17,15H18V16H17zM20,15H21V16H20zM23,15H24V16H23zM24,15H25V16H24zM26,15H27V16H26zM27,15H28V16H27zM28,15H29V16H28zM31,15H32V16H31zM32,15H33V16H32zM34,15H35V16H34zM37,15H38V16H37zM38,15H39V16H38zM42,15H43V16H42zM44,15H45V16H44zM45,15H46V16H45zM47,15H48V16H47zM53,15H54V16H53zM56,15H57V16H56zM59,15H60V16H59zM61,15H62V16H61zM2,16H3V17H2zM5,16H6V17H5zM6,16H7V17H6zM8,16H9V17H8zM9,16H10V17H9zM12,16H13V17H12zM14,16H15V17H14zM15,16H16V17H15zM19,16H20V17H19zM20,16H21V17H20zM21,16H22V17H21zM22,16H23V17H22zM23,16H24V17H23zM29,16H30V17H29zM30,16H31V17H30zM31,16H32V17H31zM32,16H33V17H32zM36,16H37V17H36zM37,16H38V17H37zM38,16H39V17H38zM40,16H41V17H40zM43,16H44V17H43zM47,16H48V17H47zM48,16H49V17H48zM49,16H50V17H49zM51,16H52V17H51zM52,16H53V17H52zM53,16H54V17H53zM55,16H56V17H55zM57,16H58V17H57zM62,16H63V17H62zM2,17H3V18H2zM4,17H5V18H4zM6,17H7V18H6zM9,17H10V18H9zM11,17H12V18H11zM12,17H13V18H12zM13,17H14V18H13zM14,17H15V18H14zM16,17H17V18H16zM17,17H18V18H17zM18,17H19V18H18zM19,17H20V18H19zM20,17H21V18H20zM21,17H22V18H21zM22,17H23V18H22zM24,17H25V18H24zM25,17H26V18H25zM26,17H27V18H26zM27,17H28V18H27zM28,17H29V18H28zM29,17H30V18H29zM32,17H33V18H32zM37,17H38V18H37zM38,17H39V18H38zM39,17H40V18H39zM45,17H46V18H45zM49,17H50V18H49zM50,17H51V18H50zM51,17H52V18H51zM53,17H54V18H53zM54,17H55V18H54zM56,17H57V18H56zM57,17H58V18H57zM58,17H59V18H58zM2,18H3V19H2zM3,18H4V19H3zM4,18H5V19H4zM8,18H9V19H8zM9,18H10V19H9zM10,18H11V19H10zM13,18H14V19H13zM17,18H18V19H17zM18,18H19V19H18zM21,18H22V19H21zM22,18H23V19H22zM23,18H24V19H23zM25,18H26V19H25zM26,18H27V19H26zM27,18H28V19H27zM29,18H30V19H29zM31,18H32V19H31zM34,18H35V19H34zM35,18H36V19H35zM38,18H39V19H38zM40,18H41V19H40zM41,18H42V19H41zM43,18H44V19H43zM44,18H45V19H44zM47,18H48V19H47zM50,18H51V19H50zM51,18H52V19H51zM54,18H55V19H54zM57,18H58V19H57zM59,18H60V19H59zM62,18H63V19H62zM6,19H7V20H6zM9,19H10V20H9zM11,19H12V20H11zM12,19H13V20H12zM13,19H14V20H13zM15,19H16V20H15zM16,19H17V20H16zM19,19H20V20H19zM20,19H21V20H20zM21,19H22V20H21zM22,19H23V20H22zM26,19H27V20H26zM31,19H32V20H31zM33,19H34V20H33zM34,19H35V20H34zM37,19H38V20H37zM38,19H39V20H38zM39,19H40V20H39zM43,19H44V20H43zM44,19H45V20H44zM45,19H46V20H45zM49,19H50V20H49zM50,19H51V20H50zM53,19H54V20H53zM55,19H56V20H55zM56,19H57V20H56zM57,19H58V20H57zM58,19H59V20H58zM60,19H61V20H60zM8,20H9V21H8zM10,20H11V21H10zM13,20H14V21H13zM14,20H15V21H14zM15,20H16V21H15zM16,20H17V21H16zM18,20H19V21H18zM20,20H21V21H20zM21,20H22V21H21zM22,20H23V21H22zM29,20H30V21H29zM30,20H31V21H30zM35,20H36V21H35zM36,20H37V21H36zM38,20H39V21H38zM40,20H41V21H40zM41,20H42V21H41zM47,20H48V21H47zM48,20H49V21H48zM50,20H51V21H50zM51,20H52V21H51zM52,20H53V21H52zM53,20H54V21H53zM61,20H62V21H61zM62,20H63V21H62zM3,21H4V22H3zM6,21H7V22H6zM12,21H13V22H12zM13,21H14V22H13zM14,21H15V22H14zM16,21H17V22H16zM23,21H24V22H23zM27,21H28V22H27zM31,21H32V22H31zM32,21H33V22H32zM33,21H34V22H33zM36,21H37V22H36zM42,21H43V22H42zM44,21H45V22H44zM46,21H47V22H46zM49,21H50V22H49zM56,21H57V22H56zM57,21H58V22H57zM58,21H59V22H58zM61,21H62V22H61zM2,22H3V23H2zM3,22H4V23H3zM4,22H5V23H4zM7,22H8V23H7zM8,22H9V23H8zM12,22H13V23H12zM13,22H14V23H13zM15,22H16V23H15zM17,22H18V23H17zM20,22H21V23H20zM21,22H22V23H21zM22,22H23V23H22zM33,22H34V23H33zM35,22H36V23H35zM36,22H37V23H36zM37,22H38V23H37zM38,22H39V23H38zM39,22H40V23H39zM41,22H42V23H41zM49,22H50V23H49zM50,22H51V23H50zM51,22H52V23H51zM52,22H53V23H52zM54,22H55V23H54zM55,22H56V23H55zM57,22H58V23H57zM59,22H60V23H59zM60,22H61V23H60zM61,22H62V23H61zM62,22H63V23H62zM4,23H5V24H4zM9,23H10V24H9zM10,23H11V24H10zM12,23H13V24H12zM13,23H14V24H13zM14,23H15V24H14zM15,23H16V24H15zM17,23H18V24H17zM19,23H20V24H19zM22,23H23V24H22zM23,23H24V24H23zM27,23H28V24H27zM31,23H32V24H31zM33,23H34V24H33zM34,23H35V24H34zM35,23H36V24H35zM38,23H39V24H38zM41,23H42V24H41zM44,23H45V24H44zM45,23H46V24H45zM47,23H48V24H47zM51,23H52V24H51zM55,23H56V24H55zM56,23H57V24H56zM58,23H59V24H58zM59,23H60V24H59zM62,23H63V24H62zM3,24H4V25H3zM4,24H5V25H4zM5,24H6V25H5zM8,24H9V25H8zM11,24H12V25H11zM12,24H13V25H12zM13,24H14V25H13zM14,24H15V25H14zM16,24H17V25H16zM19,24H20V25H19zM21,24H22V25H21zM22,24H23V25H22zM24,24H25V25H24zM27,24H28V25H27zM35,24H36V25H35zM36,24H37V25H36zM38,24H39V25H38zM40,24H41V25H40zM41,24H42V25H41zM43,24H44V25H43zM46,24H47V25H46zM48,24H49V25H48zM50,24H51V25H50zM52,24H53V25H52zM54,24H55V25H54zM57,24H58V25H57zM59,24H60V25H59zM61,24H62V25H61zM62,24H63V25H62zM6,25H7V26H6zM9,25H10V26H9zM11,25H12V26H11zM13,25H14V26H13zM17,25H18V26H17zM18,25H19V26H18zM20,25H21V26H20zM24,25H25V26H24zM26,25H27V26H26zM29,25H30V26H29zM31,25H32V26H31zM35,25H36V26H35zM42,25H43V26H42zM44,25H45V26H44zM46,25H47V26H46zM47,25H48V26H47zM51,25H52V26H51zM54,25H55V26H54zM55,25H56V26H55zM57,25H58V26H57zM58,25H59V26H58zM62,25H63V26H62zM4,26H5V27H4zM6,26H7V27H6zM8,26H9V27H8zM13,26H14V27H13zM14,26H15V27H14zM15,26H16V27H15zM17,26H18V27H17zM18,26H19V27H18zM19,26H20V27H19zM20,26H21V27H20zM21,26H22V27H21zM25,26H26V27H25zM26,26H27V27H26zM27,26H28V27H27zM32,26H33V27H32zM33,26H34V27H33zM37,26H38V27H37zM38,26H39V27H38zM39,26H40V27H39zM41,26H42V27H41zM43,26H44V27H43zM44,26H45V27H44zM45,26H46V27H45zM49,26H50V27H49zM50,26H51V27H50zM51,26H52V27H51zM53,26H54V27H53zM55,26H56V27H55zM57,26H58V27H57zM59,26H60V27H59zM62,26H63V27H62zM2,27H3V28H2zM3,27H4V28H3zM4,27H5V28H4zM5,27H6V28H5zM7,27H8V28H7zM9,27H10V28H9zM11,27H12V28H11zM13,27H14V28H13zM15,27H16V28H15zM16,27H17V28H16zM18,27H19V28H18zM19,27H20V28H19zM22,27H23V28H22zM24,27H25V28H24zM26,27H27V28H26zM27,27H28V28H27zM28,27H29V28H28zM29,27H30V28H29zM32,27H33V28H32zM35,27H36V28H35zM37,27H38V28H37zM38,27H39V28H38zM41,27H42V28H41zM42,27H43V28H42zM44,27H45V28H44zM47,27H48V28H47zM49,27H50V28H49zM50,27H51V28H50zM56,27H57V28H56zM6,28H7V29H6zM7,28H8V29H7zM8,28H9V29H8zM11,28H12V29H11zM12,28H13V29H12zM13,28H14V29H13zM15,28H16V29H15zM16,28H17V29H16zM17,28H18V29H17zM18,28H19V29H18zM19,28H20V29H19zM21,28H22V29H21zM22,28H23V29H22zM23,28H24V29H23zM25,28H26V29H25zM26,28H27V29H26zM29,28H30V29H29zM30,28H31V29H30zM31,28H32V29H31zM32,28H33V29H32zM33,28H34V29H33zM34,28H35V29H34zM39,28H40V29H39zM41,28H42V29H41zM43,28H44V29H43zM44,28H45V29H44zM49,28H50V29H49zM50,28H51V29H50zM51,28H52V29H51zM52,28H53V29H52zM54,28H55V29H54zM55,28H56V29H55zM57,28H58V29H57zM59,28H60V29H59zM60,28H61V29H60zM61,28H62V29H61zM62,28H63V29H62zM2,29H3V30H2zM4,29H5V30H4zM5,29H6V30H5zM7,29H8V30H7zM10,29H11V30H10zM13,29H14V30H13zM14,29H15V30H14zM15,29H16V30H15zM18,29H19V30H18zM19,29H20V30H19zM20,29H21V30H20zM21,29H22V30H21zM22,29H23V30H22zM24,29H25V30H24zM26,29H27V30H26zM28,29H29V30H28zM29,29H30V30H29zM31,29H32V30H31zM32,29H33V30H32zM34,29H35V30H34zM35,29H36V30H35zM36,29H37V30H36zM41,29H42V30H41zM42,29H43V30H42zM43,29H44V30H43zM44,29H45V30H44zM47,29H48V30H47zM49,29H50V30H49zM51,29H52V30H51zM52,29H53V30H52zM53,29H54V30H53zM55,29H56V30H55zM56,29H57V30H56zM57,29H58V30H57zM58,29H59V30H58zM61,29H62V30H61zM62,29H63V30H62zM4,30H5V31H4zM6,30H7V31H6zM7,30H8V31H7zM8,30H9V31H8zM9,30H10V31H9zM10,30H11V31H10zM13,30H14V31H13zM15,30H16V31H15zM17,30H18V31H17zM20,30H21V31H20zM24,30H25V31H24zM30,30H31V31H30zM31,30H32V31H31zM32,30H33V31H32zM33,30H34V31H33zM34,30H35V31H34zM35,30H36V31H35zM36,30H37V31H36zM37,30H38V31H37zM38,30H39V31H38zM39,30H40V31H39zM40,30H41V31H40zM43,30H44V31H43zM44,30H45V31H44zM45,30H46V31H45zM50,30H51V31H50zM52,30H53V31H52zM53,30H54V31H53zM54,30H55V31H54zM55,30H56V31H55zM56,30H57V31H56zM57,30H58V31H57zM58,30H59V31H58zM59,30H60V31H59zM60,30H61V31H60zM61,30H62V31H61zM62,30H63V31H62zM2,31H3V32H2zM4,31H5V32H4zM6,31H7V32H6zM10,31H11V32H10zM12,31H13V32H12zM13,31H14V32H13zM15,31H16V32H15zM17,31H18V32H17zM18,31H19V32H18zM20,31H21V32H20zM21,31H22V32H21zM23,31H24V32H23zM24,31H25V32H24zM26,31H27V32H26zM27,31H28V32H27zM28,31H29V32H28zM29,31H30V32H29zM30,31H31V32H30zM34,31H35V32H34zM37,31H38V32H37zM39,31H40V32H39zM43,31H44V32H43zM44,31H45V32H44zM45,31H46V32H45zM46,31H47V32H46zM51,31H52V32H51zM54,31H55V32H54zM58,31H59V32H58zM6,32H7V33H6zM8,32H9V33H8zM10,32H11V33H10zM18,32H19V33H18zM19,32H20V33H19zM21,32H22V33H21zM22,32H23V33H22zM23,32H24V33H23zM26,32H27V33H26zM30,32H31V33H30zM32,32H33V33H32zM34,32H35V33H34zM35,32H36V33H35zM36,32H37V33H36zM38,32H39V33H38zM40,32H41V33H40zM44,32H45V33H44zM46,32H47V33H46zM47,32H48V33H47zM48,32H49V33H48zM50,32H51V33H50zM52,32H53V33H52zM54,32H55V33H54zM56,32H57V33H56zM58,32H59V33H58zM61,32H62V33H61zM62,32H63V33H62zM2,33H3V34H2zM5,33H6V34H5zM6,33H7V34H6zM10,33H11V34H10zM11,33H12V34H11zM12,33H13V34H12zM13,33H14V34H13zM15,33H16V34H15zM17,33H18V34H17zM18,33H19V34H18zM19,33H20V34H19zM21,33H22V34H21zM22,33H23V34H22zM26,33H27V34H26zM28,33H29V34H28zM29,33H30V34H29zM30,33H31V34H30zM34,33H35V34H34zM37,33H38V34H37zM39,33H40V34H39zM42,33H43V34H42zM44,33H45V34H44zM46,33H47V34H46zM53,33H54V34H53zM54,33H55V34H54zM58,33H59V34H58zM59,33H60V34H59zM61,33H62V34H61zM62,33H63V34H62zM2,34H3V35H2zM3,34H4V35H3zM6,34H7V35H6zM7,34H8V35H7zM8,34H9V35H8zM9,34H10V35H9zM10,34H11V35H10zM11,34H12V35H11zM13,34H14V35H13zM14,34H15V35H14zM18,34H19V35H18zM21,34H22V35H21zM23,34H24V35H23zM30,34H31V35H30zM31,34H32V35H31zM32,34H33V35H32zM33,34H34V35H33zM34,34H35V35H34zM37,34H38V35H37zM38,34H39V35H38zM39,34H40V35H39zM45,34H46V35H45zM50,34H51V35H50zM53,34H54V35H53zM54,34H55V35H54zM55,34H56V35H55zM56,34H57V35H56zM57,34H58V35H57zM58,34H59V35H58zM60,34H61V35H60zM61,34H62V35H61zM62,34H63V35H62zM2,35H3V36H2zM7,35H8V36H7zM9,35H10V36H9zM10,35H11V36H10zM14,35H15V36H14zM16,35H17V36H16zM17,35H18V36H17zM19,35H20V36H19zM20,35H21V36H20zM21,35H22V36H21zM22,35H23V36H22zM23,35H24V36H23zM25,35H26V36H25zM26,35H27V36H26zM28,35H29V36H28zM30,35H31V36H30zM33,35H34V36H33zM34,35H35V36H34zM37,35H38V36H37zM41,35H42V36H41zM42,35H43V36H42zM44,35H45V36H44zM46,35H47V36H46zM47,35H48V36H47zM49,35H50V36H49zM50,35H51V36H50zM54,35H55V36H54zM55,35H56V36H55zM56,35H57V36H56zM57,35H58V36H57zM59,35H60V36H59zM60,35H61V36H60zM61,35H62V36H61zM3,36H4V37H3zM4,36H5V37H4zM7,36H8V37H7zM8,36H9V37H8zM10,36H11V37H10zM14,36H15V37H14zM16,36H17V37H16zM18,36H19V37H18zM19,36H20V37H19zM22,36H23V37H22zM23,36H24V37H23zM24,36H25V37H24zM26,36H27V37H26zM29,36H30V37H29zM32,36H33V37H32zM35,36H36V37H35zM36,36H37V37H36zM38,36H39V37H38zM39,36H40V37H39zM40,36H41V37H40zM41,36H42V37H41zM43,36H44V37H43zM45,36H46V37H45zM46,36H47V37H46zM48,36H49V37H48zM49,36H50V37H49zM50,36H51V37H50zM51,36H52V37H51zM52,36H53V37H52zM53,36H54V37H53zM56,36H57V37H56zM58,36H59V37H58zM60,36H61V37H60zM62,36H63V37H62zM2,37H3V38H2zM7,37H8V38H7zM9,37H10V38H9zM11,37H12V38H11zM12,37H13V38H12zM21,37H22V38H21zM22,37H23V38H22zM24,37H25V38H24zM26,37H27V38H26zM27,37H28V38H27zM30,37H31V38H30zM32,37H33V38H32zM33,37H34V38H33zM36,37H37V38H36zM38,37H39V38H38zM39,37H40V38H39zM41,37H42V38H41zM44,37H45V38H44zM50,37H51V38H50zM54,37H55V38H54zM55,37H56V38H55zM61,37H62V38H61zM62,37H63V38H62zM4,38H5V39H4zM5,38H6V39H5zM8,38H9V39H8zM9,38H10V39H9zM12,38H13V39H12zM13,38H14V39H13zM20,38H21V39H20zM24,38H25V39H24zM25,38H26V39H25zM29,38H30V39H29zM31,38H32V39H31zM32,38H33V39H32zM35,38H36V39H35zM37,38H38V39H37zM39,38H40V39H39zM42,38H43V39H42zM43,38H44V39H43zM45,38H46V39H45zM46,38H47V39H46zM49,38H50V39H49zM52,38H53V39H52zM53,38H54V39H53zM54,38H55V39H54zM55,38H56V39H55zM57,38H58V39H57zM58,38H59V39H58zM59,38H60V39H59zM60,38H61V39H60zM61,38H62V39H61zM62,38H63V39H62zM4,39H5V40H4zM6,39H7V40H6zM7,39H8V40H7zM10,39H11V40H10zM11,39H12V40H11zM14,39H15V40H14zM15,39H16V40H15zM18,39H19V40H18zM19,39H20V40H19zM21,39H22V40H21zM24,39H25V40H24zM25,39H26V40H25zM26,39H27V40H26zM28,39H29V40H28zM30,39H31V40H30zM31,39H32V40H31zM39,39H40V40H39zM41,39H42V40H41zM42,39H43V40H42zM43,39H44V40H43zM44,39H45V40H44zM46,39H47V40H46zM47,39H48V40H47zM55,39H56V40H55zM56,39H57V40H56zM57,39H58V40H57zM59,39H60V40H59zM61,39H62V40H61zM62,39H63V40H62zM5,40H6V41H5zM8,40H9V41H8zM9,40H10V41H9zM13,40H14V41H13zM15,40H16V41H15zM17,40H18V41H17zM18,40H19V41H18zM19,40H20V41H19zM22,40H23V41H22zM24,40H25V41H24zM25,40H26V41H25zM26,40H27V41H26zM27,40H28V41H27zM28,40H29V41H28zM29,40H30V41H29zM32,40H33V41H32zM34,40H35V41H34zM35,40H36V41H35zM36,40H37V41H36zM37,40H38V41H37zM39,40H40V41H39zM40,40H41V41H40zM42,40H43V41H42zM45,40H46V41H45zM46,40H47V41H46zM47,40H48V41H47zM48,40H49V41H48zM49,40H50V41H49zM51,40H52V41H51zM52,40H53V41H52zM53,40H54V41H53zM54,40H55V41H54zM55,40H56V41H55zM56,40H57V41H56zM61,40H62V41H61zM2,41H3V42H2zM3,41H4V42H3zM9,41H10V42H9zM11,41H12V42H11zM12,41H13V42H12zM13,41H14V42H13zM14,41H15V42H14zM18,41H19V42H18zM22,41H23V42H22zM23,41H24V42H23zM24,41H25V42H24zM25,41H26V42H25zM26,41H27V42H26zM28,41H29V42H28zM30,41H31V42H30zM33,41H34V42H33zM36,41H37V42H36zM37,41H38V42H37zM40,41H41V42H40zM42,41H43V42H42zM44,41H45V42H44zM47,41H48V42H47zM49,41H50V42H49zM52,41H53V42H52zM56,41H57V42H56zM57,41H58V42H57zM58,41H59V42H58zM62,41H63V42H62zM2,42H3V43H2zM4,42H5V43H4zM8,42H9V43H8zM11,42H12V43H11zM12,42H13V43H12zM13,42H14V43H13zM15,42H16V43H15zM17,42H18V43H17zM19,42H20V43H19zM21,42H22V43H21zM22,42H23V43H22zM23,42H24V43H23zM26,42H27V43H26zM27,42H28V43H27zM28,42H29V43H28zM32,42H33V43H32zM33,42H34V43H33zM34,42H35V43H34zM35,42H36V43H35zM36,42H37V43H36zM38,42H39V43H38zM39,42H40V43H39zM41,42H42V43H41zM44,42H45V43H44zM45,42H46V43H45zM47,42H48V43H47zM48,42H49V43H48zM49,42H50V43H49zM50,42H51V43H50zM53,42H54V43H53zM55,42H56V43H55zM56,42H57V43H56zM57,42H58V43H57zM58,42H59V43H58zM59,42H60V43H59zM60,42H61V43H60zM62,42H63V43H62zM4,43H5V44H4zM5,43H6V44H5zM6,43H7V44H6zM9,43H10V44H9zM11,43H12V44H11zM14,43H15V44H14zM17,43H18V44H17zM19,43H20V44H19zM20,43H21V44H20zM22,43H23V44H22zM25,43H26V44H25zM30,43H31V44H30zM31,43H32V44H31zM35,43H36V44H35zM41,43H42V44H41zM44,43H45V44H44zM45,43H46V44H45zM46,43H47V44H46zM47,43H48V44H47zM49,43H50V44H49zM50,43H51V44H50zM51,43H52V44H51zM53,43H54V44H53zM55,43H56V44H55zM56,43H57V44H56zM57,43H58V44H57zM59,43H60V44H59zM60,43H61V44H60zM61,43H62V44H61zM3,44H4V45H3zM8,44H9V45H8zM9,44H10V45H9zM10,44H11V45H10zM13,44H14V45H13zM14,44H15V45H14zM16,44H17V45H16zM18,44H19V45H18zM20,44H21V45H20zM22,44H23V45H22zM23,44H24V45H23zM27,44H28V45H27zM29,44H30V45H29zM30,44H31V45H30zM32,44H33V45H32zM34,44H35V45H34zM35,44H36V45H35zM36,44H37V45H36zM38,44H39V45H38zM40,44H41V45H40zM46,44H47V45H46zM48,44H49V45H48zM49,44H50V45H49zM50,44H51V45H50zM52,44H53V45H52zM53,44H54V45H53zM55,44H56V45H55zM56,44H57V45H56zM57,44H58V45H57zM60,44H61V45H60zM62,44H63V45H62zM3,45H4V46H3zM7,45H8V46H7zM9,45H10V46H9zM12,45H13V46H12zM13,45H14V46H13zM16,45H17V46H16zM18,45H19V46H18zM20,45H21V46H20zM22,45H23V46H22zM25,45H26V46H25zM27,45H28V46H27zM29,45H30V46H29zM30,45H31V46H30zM31,45H32V46H31zM32,45H33V46H32zM36,45H37V46H36zM39,45H40V46H39zM40,45H41V46H40zM42,45H43V46H42zM43,45H44V46H43zM45,45H46V46H45zM46,45H47V46H46zM48,45H49V46H48zM54,45H55V46H54zM61,45H62V46H61zM62,45H63V46H62zM2,46H3V47H2zM3,46H4V47H3zM4,46H5V47H4zM5,46H6V47H5zM6,46H7V47H6zM8,46H9V47H8zM9,46H10V47H9zM12,46H13V47H12zM13,46H14V47H13zM14,46H15V47H14zM15,46H16V47H15zM16,46H17V47H16zM19,46H20V47H19zM20,46H21V47H20zM21,46H22V47H21zM22,46H23V47H22zM23,46H24V47H23zM24,46H25V47H24zM25,46H26V47H25zM27,46H28V47H27zM31,46H32V47H31zM32,46H33V47H32zM33,46H34V47H33zM35,46H36V47H35zM36,46H37V47H36zM37,46H38V47H37zM38,46H39V47H38zM40,46H41V47H40zM41,46H42V47H41zM47,46H48V47H47zM48,46H49V47H48zM49,46H50V47H49zM50,46H51V47H50zM52,46H53V47H52zM53,46H54V47H53zM55,46H56V47H55zM56,46H57V47H56zM60,46H61V47H60zM61,46H62V47H61zM62,46H63V47H62zM2,47H3V48H2zM3,47H4V48H3zM5,47H6V48H5zM6,47H7V48H6zM7,47H8V48H7zM12,47H13V48H12zM18,47H19V48H18zM20,47H21V48H20zM21,47H22V48H21zM22,47H23V48H22zM24,47H25V48H24zM26,47H27V48H26zM28,47H29V48H28zM29,47H30V48H29zM30,47H31V48H30zM33,47H34V48H33zM36,47H37V48H36zM39,47H40V48H39zM40,47H41V48H40zM43,47H44V48H43zM46,47H47V48H46zM48,47H49V48H48zM49,47H50V48H49zM50,47H51V48H50zM54,47H55V48H54zM55,47H56V48H55zM56,47H57V48H56zM57,47H58V48H57zM59,47H60V48H59zM3,48H4V49H3zM4,48H5V49H4zM5,48H6V49H5zM7,48H8V49H7zM8,48H9V49H8zM9,48H10V49H9zM11,48H12V49H11zM12,48H13V49H12zM14,48H15V49H14zM15,48H16V49H15zM16,48H17V49H16zM18,48H19V49H18zM20,48H21V49H20zM22,48H23V49H22zM32,48H33V49H32zM33,48H34V49H33zM34,48H35V49H34zM35,48H36V49H35zM38,48H39V49H38zM44,48H45V49H44zM47,48H48V49H47zM49,48H50V49H49zM51,48H52V49H51zM52,48H53V49H52zM53,48H54V49H53zM54,48H55V49H54zM56,48H57V49H56zM59,48H60V49H59zM60,48H61V49H60zM61,48H62V49H61zM62,48H63V49H62zM2,49H3V50H2zM4,49H5V50H4zM5,49H6V50H5zM6,49H7V50H6zM11,49H12V50H11zM12,49H13V50H12zM14,49H15V50H14zM15,49H16V50H15zM17,49H18V50H17zM20,49H21V50H20zM26,49H27V50H26zM30,49H31V50H30zM31,49H32V50H31zM32,49H33V50H32zM33,49H34V50H33zM37,49H38V50H37zM38,49H39V50H38zM40,49H41V50H40zM42,49H43V50H42zM44,49H45V50H44zM47,49H48V50H47zM49,49H50V50H49zM62,49H63V50H62zM2,50H3V51H2zM5,50H6V51H5zM7,50H8V51H7zM8,50H9V51H8zM9,50H10V51H9zM12,50H13V51H12zM13,50H14V51H13zM14,50H15V51H14zM15,50H16V51H15zM25,50H26V51H25zM27,50H28V51H27zM32,50H33V51H32zM33,50H34V51H33zM34,50H35V51H34zM37,50H38V51H37zM38,50H39V51H38zM44,50H45V51H44zM45,50H46V51H45zM48,50H49V51H48zM50,50H51V51H50zM51,50H52V51H51zM53,50H54V51H53zM54,50H55V51H54zM58,50H59V51H58zM59,50H60V51H59zM60,50H61V51H60zM61,50H62V51H61zM62,50H63V51H62zM4,51H5V52H4zM7,51H8V52H7zM11,51H12V52H11zM13,51H14V52H13zM14,51H15V52H14zM16,51H17V52H16zM17,51H18V52H17zM19,51H20V52H19zM23,51H24V52H23zM24,51H25V52H24zM26,51H27V52H26zM30,51H31V52H30zM31,51H32V52H31zM32,51H33V52H32zM38,51H39V52H38zM41,51H42V52H41zM42,51H43V52H42zM43,51H44V52H43zM44,51H45V52H44zM49,51H50V52H49zM50,51H51V52H50zM51,51H52V52H51zM53,51H54V52H53zM54,51H55V52H54zM57,51H58V52H57zM59,51H60V52H59zM61,51H62V52H61zM4,52H5V53H4zM5,52H6V53H5zM6,52H7V53H6zM7,52H8V53H7zM8,52H9V53H8zM11,52H12V53H11zM12,52H13V53H12zM13,52H14V53H13zM15,52H16V53H15zM17,52H18V53H17zM20,52H21V53H20zM24,52H25V53H24zM27,52H28V53H27zM29,52H30V53H29zM30,52H31V53H30zM31,52H32V53H31zM33,52H34V53H33zM35,52H36V53H35zM36,52H37V53H36zM38,52H39V53H38zM39,52H40V53H39zM40,52H41V53H40zM47,52H48V53H47zM48,52H49V53H48zM49,52H50V53H49zM50,52H51V53H50zM52,52H53V53H52zM53,52H54V53H53zM55,52H56V53H55zM56,52H57V53H56zM57,52H58V53H57zM58,52H59V53H58zM59,52H60V53H59zM60,52H61V53H60zM61,52H62V53H61zM62,52H63V53H62zM2,53H3V54H2zM3,53H4V54H3zM4,53H5V54H4zM6,53H7V54H6zM11,53H12V54H11zM12,53H13V54H12zM13,53H14V54H13zM17,53H18V54H17zM20,53H21V54H20zM23,53H24V54H23zM24,53H25V54H24zM26,53H27V54H26zM27,53H28V54H27zM29,53H30V54H29zM30,53H31V54H30zM36,53H37V54H36zM37,53H38V54H37zM41,53H42V54H41zM42,53H43V54H42zM44,53H45V54H44zM46,53H47V54H46zM47,53H48V54H47zM54,53H55V54H54zM55,53H56V54H55zM57,53H58V54H57zM58,53H59V54H58zM59,53H60V54H59zM2,54H3V55H2zM3,54H4V55H3zM4,54H5V55H4zM5,54H6V55H5zM8,54H9V55H8zM10,54H11V55H10zM11,54H12V55H11zM13,54H14V55H13zM16,54H17V55H16zM17,54H18V55H17zM18,54H19V55H18zM20,54H21V55H20zM21,54H22V55H21zM23,54H24V55H23zM24,54H25V55H24zM30,54H31V55H30zM31,54H32V55H31zM32,54H33V55H32zM33,54H34V55H33zM34,54H35V55H34zM35,54H36V55H35zM37,54H38V55H37zM38,54H39V55H38zM40,54H41V55H40zM44,54H45V55H44zM45,54H46V55H45zM47,54H48V55H47zM48,54H49V55H48zM49,54H50V55H49zM50,54H51V55H50zM51,54H52V55H51zM53,54H54V55H53zM54,54H55V55H54zM55,54H56V55H55zM56,54H57V55H56zM57,54H58V55H57zM58,54H59V55H58zM60,54H61V55H60zM62,54H63V55H62zM10,55H11V56H10zM12,55H13V56H12zM14,55H15V56H14zM16,55H17V56H16zM17,55H18V56H17zM18,55H19V56H18zM20,55H21V56H20zM21,55H22V56H21zM22,55H23V56H22zM23,55H24V56H23zM24,55H25V56H24zM25,55H26V56H25zM26,55H27V56H26zM27,55H28V56H27zM28,55H29V56H28zM29,55H30V56H29zM30,55H31V56H30zM34,55H35V56H34zM37,55H38V56H37zM41,55H42V56H41zM42,55H43V56H42zM43,55H44V56H43zM44,55H45V56H44zM47,55H48V56H47zM49,55H50V56H49zM50,55H51V56H50zM54,55H55V56H54zM58,55H59V56H58zM60,55H61V56H60zM2,56H3V57H2zM3,56H4V57H3zM4,56H5V57H4zM5,56H6V57H5zM6,56H7V57H6zM7,56H8V57H7zM8,56H9V57H8zM12,56H13V57H12zM16,56H17V57H16zM17,56H18V57H17zM19,56H20V57H19zM20,56H21V57H20zM24,56H25V57H24zM27,56H28V57H27zM30,56H31V57H30zM32,56H33V57H32zM34,56H35V57H34zM35,56H36V57H35zM36,56H37V57H36zM37,56H38V57H37zM39,56H40V57H39zM40,56H41V57H40zM41,56H42V57H41zM46,56H47V57H46zM48,56H49V57H48zM49,56H50V57H49zM52,56H53V57H52zM53,56H54V57H53zM54,56H55V57H54zM56,56H57V57H56zM58,56H59V57H58zM59,56H60V57H59zM62,56H63V57H62zM2,57H3V58H2zM8,57H9V58H8zM10,57H11V58H10zM11,57H12V58H11zM12,57H13V58H12zM13,57H14V58H13zM14,57H15V58H14zM15,57H16V58H15zM16,57H17V58H16zM17,57H18V58H17zM18,57H19V58H18zM21,57H22V58H21zM23,57H24V58H23zM24,57H25V58H24zM26,57H27V58H26zM27,57H28V58H27zM30,57H31V58H30zM34,57H35V58H34zM35,57H36V58H35zM36,57H37V58H36zM37,57H38V58H37zM38,57H39V58H38zM45,57H46V58H45zM50,57H51V58H50zM53,57H54V58H53zM54,57H55V58H54zM58,57H59V58H58zM61,57H62V58H61zM2,58H3V59H2zM4,58H5V59H4zM5,58H6V59H5zM6,58H7V59H6zM8,58H9V59H8zM10,58H11V59H10zM12,58H13V59H12zM13,58H14V59H13zM14,58H15V59H14zM16,58H17V59H16zM18,58H19V59H18zM21,58H22V59H21zM22,58H23V59H22zM29,58H30V59H29zM30,58H31V59H30zM31,58H32V59H31zM32,58H33V59H32zM33,58H34V59H33zM34,58H35V59H34zM38,58H39V59H38zM40,58H41V59H40zM41,58H42V59H41zM44,58H45V59H44zM50,58H51V59H50zM54,58H55V59H54zM55,58H56V59H55zM56,58H57V59H56zM57,58H58V59H57zM58,58H59V59H58zM59,58H60V59H59zM60,58H61V59H60zM61,58H62V59H61zM62,58H63V59H62zM2,59H3V60H2zM4,59H5V60H4zM5,59H6V60H5zM6,59H7V60H6zM8,59H9V60H8zM10,59H11V60H10zM11,59H12V60H11zM15,59H16V60H15zM17,59H18V60H17zM19,59H20V60H19zM20,59H21V60H20zM25,59H26V60H25zM26,59H27V60H26zM27,59H28V60H27zM28,59H29V60H28zM29,59H30V60H29zM31,59H32V60H31zM32,59H33V60H32zM33,59H34V60H33zM37,59H38V60H37zM38,59H39V60H38zM39,59H40V60H39zM44,59H45V60H44zM45,59H46V60H45zM47,59H48V60H47zM50,59H51V60H50zM51,59H52V60H51zM53,59H54V60H53zM54,59H55V60H54zM56,59H57V60H56zM57,59H58V60H57zM58,59H59V60H58zM59,59H60V60H59zM60,59H61V60H60zM62,59H63V60H62zM2,60H3V61H2zM4,60H5V61H4zM5,60H6V61H5zM6,60H7V61H6zM8,60H9V61H8zM10,60H11V61H10zM11,60H12V61H11zM13,60H14V61H13zM14,60H15V61H14zM16,60H17V61H16zM18,60H19V61H18zM19,60H20V61H19zM20,60H21V61H20zM22,60H23V61H22zM23,60H24V61H23zM29,60H30V61H29zM35,60H36V61H35zM36,60H37V61H36zM38,60H39V61H38zM40,60H41V61H40zM41,60H42V61H41zM48,60H49V61H48zM50,60H51V61H50zM52,60H53V61H52zM57,60H58V61H57zM62,60H63V61H62zM2,61H3V62H2zM8,61H9V62H8zM13,61H14V62H13zM14,61H15V62H14zM15,61H16V62H15zM16,61H17V62H16zM18,61H19V62H18zM20,61H21V62H20zM21,61H22V62H21zM25,61H26V62H25zM27,61H28V62H27zM29,61H30V62H29zM30,61H31V62H30zM31,61H32V62H31zM32,61H33V62H32zM33,61H34V62H33zM34,61H35V62H34zM37,61H38V62H37zM39,61H40V62H39zM42,61H43V62H42zM47,61H48V62H47zM49,61H50V62H49zM52,61H53V62H52zM56,61H57V62H56zM57,61H58V62H57zM62,61H63V62H62zM2,62H3V63H2zM3,62H4V63H3zM4,62H5V63H4zM5,62H6V63H5zM6,62H7V63H6zM7,62H8V63H7zM8,62H9V63H8zM10,62H11V63H10zM11,62H12V63H11zM13,62H14V63H13zM15,62H16V63H15zM17,62H18V63H17zM18,62H19V63H18zM21,62H22V63H21zM24,62H25V63H24zM25,62H26V63H25zM26,62H27V63H26zM31,62H32V63H31zM32,62H33V63H32zM38,62H39V63H38zM39,62H40V63H39zM41,62H42V63H41zM44,62H45V63H44zM45,62H46V63H45zM47,62H48V63H47zM49,62H50V63H49zM50,62H51V63H50zM51,62H52V63H51zM52,62H53V63H52zM53,62H54V63H53zM54,62H55V63H54zM55,62H56V63H55zM57,62H58V63H57zM59,62H60V63H59zM60,62H61V63H60zM61,62H62V63H61zM62,62H63V63H62z" id="qr-path" fill="#000000" fill-opacity="1" fill-rule="nonzero" stroke="none"/></svg>